<?xml version="1.0" encoding="UTF-8"?>
<svg width="420px" height="89px" viewBox="0 0 420 89" version="1.1" xmlns="http://www.w3.org/2000/svg" xmlns:xlink="http://www.w3.org/1999/xlink">
    <!-- Generator: Sketch 61.2 (89653) - https://sketch.com -->
    <title>Group</title>
    <desc>Created with Sketch.</desc>
    <g id="Page-1" stroke="none" stroke-width="1" fill="none" fill-rule="evenodd">
        <g id="Group">
            <g id="logo">
                <g id="Bubble-Copy-5" transform="translate(37.855738, 29.980480)" fill="#FFE547">
                    <ellipse id="Oval" opacity="0.244326637" cx="28.8032792" cy="29.1476891" rx="28.8032792" ry="28.9317803"></ellipse>
                    <ellipse id="Oval" cx="29.0198452" cy="29.1476891" rx="14.7264886" ry="14.681799"></ellipse>
                </g>
                <g id="Bubble-Copy-9" transform="translate(0.000000, 27.513393)" fill="#FF16D7">
                    <ellipse id="Oval" opacity="0.244326637" cx="28.8032792" cy="30.4583682" rx="28.8032792" ry="30.0796221"></ellipse>
                    <ellipse id="Oval" cx="29.0198452" cy="30.4583682" rx="14.7264886" ry="15.2642858"></ellipse>
                </g>
                <g id="Bubble-Copy-10" transform="translate(18.104918, 0.000000)" fill="#86D600">
                    <ellipse id="Oval" opacity="0.244326637" cx="28.8032792" cy="29.1476891" rx="28.8032792" ry="28.9317803"></ellipse>
                    <ellipse id="Oval" cx="29.0198452" cy="29.1476891" rx="14.7264886" ry="14.681799"></ellipse>
                </g>
            </g>
            <g id="DARMICA" transform="translate(132.000000, 14.000000)" fill-rule="nonzero">
                <path d="M10.6630675,55.123871 C15.2186503,55.123871 18.7104294,53.9082796 21.1384049,51.4770968 C23.5663804,49.045914 24.7803681,45.2711828 24.7803681,40.1529032 L24.7803681,40.1529032 L24.7803681,14.5870968 C24.7803681,10.0830108 23.6414724,6.60258065 21.363681,4.14580645 C19.0858896,1.68903226 15.7442945,0.460645161 11.3388957,0.460645161 L11.3388957,0.460645161 L5.14729363e-13,0.460645161 L5.14729363e-13,55.123871 L10.6630675,55.123871 Z M11.1887117,47.7535484 L7.6593865,47.7535484 L7.6593865,7.83096774 L11.1887117,7.83096774 C13.4414724,7.83096774 14.9933742,8.41956989 15.8444172,9.59677419 C16.6954601,10.7739785 17.1209816,12.4374194 17.1209816,14.5870968 L17.1209816,14.5870968 L17.1209816,40.9206452 C17.1209816,43.2750538 16.6704294,45.0024731 15.7693252,46.1029032 C14.8682209,47.2033333 13.3413497,47.7535484 11.1887117,47.7535484 L11.1887117,47.7535484 Z M48.5447853,55.123871 L50.797546,43.3774194 L61.2353374,43.3774194 L63.4880982,55.123871 L71.1474847,55.123871 L59.2078528,0.460645161 L52.8250307,0.460645161 L40.8853988,55.123871 L48.5447853,55.123871 Z M59.808589,36.0070968 L52.1492025,36.0070968 L55.9038037,16.1993548 L56.0539877,16.1993548 L59.808589,36.0070968 Z M95.8130061,55.123871 L95.8130061,31.7845161 L100.39362,31.7845161 L107.527362,55.123871 L115.637301,55.123871 L107.377178,30.1722581 C109.830184,28.7903226 111.544785,26.9733333 112.520982,24.7212903 C113.497178,22.4692473 113.985276,19.7309677 113.985276,16.5064516 C113.985276,5.80924731 109.479755,0.460645161 100.468712,0.460645161 L100.468712,0.460645161 L88.1536196,0.460645161 L88.1536196,55.123871 L95.8130061,55.123871 Z M100.168344,24.8748387 L95.8130061,24.8748387 L95.8130061,7.83096774 L99.7928834,7.83096774 C102.446135,7.83096774 104.248344,8.54752688 105.199509,9.98064516 C105.650061,10.7483871 105.950429,11.6568817 106.100613,12.706129 C106.250798,13.7553763 106.32589,14.9709677 106.32589,16.3529032 C106.32589,17.7348387 106.250798,18.9504301 106.100613,19.9996774 C105.950429,21.0489247 105.675092,21.931828 105.274601,22.6483871 C104.824049,23.3649462 104.198282,23.9151613 103.397301,24.2990323 C102.596319,24.6829032 101.52,24.8748387 100.168344,24.8748387 L100.168344,24.8748387 Z M141.053742,55.123871 L141.053742,21.8806452 L141.203926,21.8806452 L148.713129,45.3735484 L152.542822,45.3735484 L160.127117,21.8806452 L160.277301,21.8806452 L160.277301,55.123871 L167.936687,55.123871 L167.936687,0.460645161 L160.502577,0.460645161 L150.740613,29.4045161 L150.590429,29.4045161 L140.753374,0.460645161 L133.394356,0.460645161 L133.394356,55.123871 L141.053742,55.123871 Z" id="DARM" fill="#525252"></path>
                <polygon id="I" fill="#FF16D7" points="196.281718 55.123871 196.281718 0.460645161 188.622331 0.460645161 188.622331 55.123871"></polygon>
                <path d="M229.13227,55.5845161 C230.834356,55.5845161 232.423804,55.2390323 233.900613,54.5480645 C235.377423,53.8570968 236.666503,52.9230108 237.767853,51.7458065 C238.869202,50.5686022 239.732761,49.2250538 240.358528,47.7151613 C240.984294,46.2052688 241.297178,44.6058065 241.297178,42.9167742 L241.297178,42.9167742 L241.297178,39.5387097 L233.637791,39.5387097 L233.637791,42.2258065 C233.637791,43.3006452 233.487607,44.1963441 233.187239,44.9129032 C232.886871,45.6294624 232.511411,46.1924731 232.060859,46.6019355 C231.560245,47.0113978 231.022086,47.3056989 230.44638,47.4848387 C229.870675,47.6639785 229.332515,47.7535484 228.831902,47.7535484 C227.079755,47.7535484 225.865767,47.216129 225.189939,46.1412903 C224.51411,45.0664516 224.176196,43.7356989 224.176196,42.1490323 L224.176196,42.1490323 L224.176196,14.2032258 C224.176196,12.3606452 224.48908,10.837957 225.114847,9.63516129 C225.740613,8.43236559 227.004663,7.83096774 228.906994,7.83096774 C230.358773,7.83096774 231.510184,8.39397849 232.361227,9.52 C233.21227,10.6460215 233.637791,11.9767742 233.637791,13.5122581 L233.637791,13.5122581 L233.637791,16.1225806 L241.297178,16.1225806 L241.297178,13.0516129 C241.297178,11.1578495 240.984294,9.40483871 240.358528,7.79258065 C239.732761,6.18032258 238.869202,4.7855914 237.767853,3.6083871 C235.515092,1.2027957 232.586503,-1.92534161e-14 228.982086,-1.92534161e-14 C227.129816,-1.92534161e-14 225.440245,0.319892473 223.913374,0.959677419 C222.386503,1.59946237 221.072393,2.48236559 219.971043,3.6083871 C218.869693,4.7344086 218.01865,6.06516129 217.417914,7.60064516 C216.817178,9.13612903 216.51681,10.7995699 216.51681,12.5909677 L216.51681,12.5909677 L216.51681,42.6864516 C216.51681,45.1944086 216.904785,47.2545161 217.680736,48.8667742 C218.456687,50.4790323 219.445399,51.7969892 220.646871,52.8206452 C221.848344,53.8443011 223.2,54.5608602 224.70184,54.9703226 C226.203681,55.3797849 227.680491,55.5845161 229.13227,55.5845161 Z" id="C" fill="#86D600"></path>
                <path d="M264.986503,55.123871 L267.239264,43.3774194 L277.677055,43.3774194 L279.929816,55.123871 L287.589202,55.123871 L275.649571,0.460645161 L269.266748,0.460645161 L257.327117,55.123871 L264.986503,55.123871 Z M276.250307,36.0070968 L268.59092,36.0070968 L272.345521,16.1993548 L272.495706,16.1993548 L276.250307,36.0070968 Z" id="A" fill="#FFE547"></path>
            </g>
        </g>
    </g>
</svg>